<mxGraphModel dx="0" dy="0" grid="1" gridSize="10" guides="1" tooltips="1" connect="1" arrows="1" fold="1" page="0" pageScale="1" background="none" math="0" shadow="0">
  <root>
    <mxCell id="0" />
    <mxCell id="1" parent="0" />
    <mxCell id="node0" parent="1" vertex="1" value="&lt;p style=&quot;margin:0px;margin-top:4px;text-align:center;&quot;&gt;&lt;b&gt;customers_nav_daily&lt;/b&gt;&lt;/p&gt;&lt;hr size=&quot;1&quot;/&gt;&lt;p style=&quot;margin:0 0 0 4px;line-height:1.6;&quot;&gt; gen_date: text&lt;br/&gt; customer_id: text&lt;br/&gt; nav: bigint&lt;br/&gt; total_balance: bigint&lt;br/&gt; deposit: bigint&lt;br/&gt; withdraw: bigint&lt;br/&gt; total_loan: bigint&lt;br/&gt; new_loan: bigint&lt;br/&gt; total_saving: bigint&lt;br/&gt; new_saving: bigint&lt;br/&gt; customer_segment: text&lt;br/&gt; is_recommended_loan: integer&lt;br/&gt; recommended_loan_type: text&lt;br/&gt; is_recommended_savings: integer&lt;br/&gt; is_recommended_credit_card: integer&lt;br/&gt; recommended_credit_card_type: text&lt;/p&gt;" style="verticalAlign=top;align=left;overflow=fill;fontSize=14;fontFamily=Helvetica;html=1;rounded=0;shadow=0;comic=0;labelBackgroundColor=none;strokeWidth=1;">
      <mxGeometry x="-139" y="-211" width="279" height="423" as="geometry" />
    </mxCell>
  </root>
</mxGraphModel>